<svg id="skype" class="svg-icon" xmlns="http://www.w3.org/2000/svg" xmlns:xlink="http://www.w3.org/1999/xlink" viewBox="0 0 210 210" xml:space="preserve">
<g id="icon" style="stroke: none; stroke-width: 1; stroke-dasharray: none; stroke-linecap: butt; stroke-linejoin: miter; stroke-miterlimit: 10; fill: none; fill-rule: nonzero; opacity: 1;" transform="translate(-1.1666666666666714 -1.1666666666666714) scale(2.33 2.33)" >
	<circle cx="43.689" cy="47.329" r="34.479" style="stroke: none; stroke-width: 1; stroke-dasharray: none; stroke-linecap: butt; stroke-linejoin: miter; stroke-miterlimit: 10; fill: rgb(255,255,255); fill-rule: nonzero; opacity: 1;" transform="  matrix(1 0 0 1 0 0) "/>
	<path d="M 86.37 51.863 c -1.428 -1.974 -2.09 -4.384 -2.087 -6.82 c 0 -0.014 0 -0.028 0 -0.043 C 84.283 23.305 66.696 5.717 45 5.717 c -4.746 0 -9.294 0.845 -13.505 2.388 c -2.278 0.835 -4.774 0.996 -7.11 0.338 c -2.063 -0.581 -4.267 -0.826 -6.55 -0.669 c -9.591 0.66 -17.312 8.52 -17.809 18.121 c -0.237 4.582 1.137 8.833 3.604 12.243 c 1.428 1.974 2.09 4.384 2.087 6.82 c 0 0.014 0 0.028 0 0.043 c 0 21.695 17.588 39.283 39.283 39.283 c 4.746 0 9.294 -0.845 13.505 -2.388 c 2.278 -0.835 4.774 -0.996 7.11 -0.338 c 2.063 0.581 4.267 0.826 6.55 0.669 c 9.591 -0.66 17.312 -8.52 17.809 -18.12 C 90.211 59.524 88.837 55.272 86.37 51.863 z M 46.438 37.957 c 7.921 1.884 19.89 4.73 19.89 17.915 c 0 6.495 -3.199 11.45 -9.007 13.951 c -4.145 1.785 -8.836 2.026 -12.878 2.026 c -12.422 0 -20.267 -9.659 -20.595 -10.07 c -2.034 -2.551 -1.616 -6.269 0.936 -8.303 c 2.551 -2.035 6.269 -1.615 8.303 0.935 c 0.018 0.022 4.71 5.41 11.356 5.621 c 8.003 0.254 9.831 -2.127 10.067 -4.16 c 0.289 -2.482 -1.919 -4.305 -10.808 -6.418 c -7.534 -1.792 -18.92 -4.499 -18.92 -16.642 c 0 -3.781 1.538 -16.119 21.328 -16.119 c 12.496 0 19.872 9.839 20.18 10.257 c 1.933 2.629 1.368 6.328 -1.261 8.26 c -2.618 1.924 -6.293 1.374 -8.233 -1.224 c -0.139 -0.179 -4.361 -4.876 -10.686 -5.477 c -4.786 -0.455 -9.511 1.271 -9.511 3.821 C 36.6 35.032 37.957 35.94 46.438 37.957 z" style="stroke: none; stroke-width: 1; stroke-dasharray: none; stroke-linecap: butt; stroke-linejoin: miter; stroke-miterlimit: 10; fill: rgb(0,170,242); fill-rule: nonzero; opacity: 1;" transform=" matrix(1 0 0 1 0 0) " stroke-linecap="round" />
</g>
</svg>